<?xml version="1.0" encoding="utf-8"?>
<!-- Generator: Adobe Illustrator 27.5.0, SVG Export Plug-In . SVG Version: 6.00 Build 0)  -->
<svg version="1.1" id="Layer_1" xmlns="http://www.w3.org/2000/svg" xmlns:xlink="http://www.w3.org/1999/xlink" x="0px" y="0px"
	 viewBox="0 0 121.08 50.62" style="enable-background:new 0 0 121.08 50.62;" xml:space="preserve">
<style type="text/css">
	.st0{fill:#F4F3EF;}
	.st1{fill:#FFFFFF;}
	.st2{fill:#E4DEDC;}
	.st3{fill:#352217;}
</style>
<g>
	<g>
		<g>
			<path class="st1" d="M45.46,38.22c-0.54-0.06-0.88,0.59-0.5,0.99c1.07,1.14,2.81,1.82,4.14,2.19c3.78,1.04,7.79,0.65,11.51-0.47
				c1.9-0.57,3.74-1.35,5.51-2.27c1.78-0.93,4.4-3.1,6.4-3.1c3.79,0,5.51,1.99,7.73,3.74c2.57,2.04,3.08,2.33,4.8,3.68
				c1.18,0.93,1.83,1.51,2.73,2.08c0.66,0.42,1.24,1.18,1.48,0.09c0.94-4.28-5.44-7.21-8.22-8.87c-2.98-1.77-6.19-3.69-8.15-6.75
				c-1.07-1.68-1.84-4.07-1-6.03c0.95-2.19,3.66-2.54,5.69-2.89c3.37-0.57,3.37-0.57,5.08-0.86c2.13-0.36,4.81-0.43,5.39-1.68
				c0.56-1.22-1.92-1.58-3.11-1.65c-1.37-0.08-2.44-0.05-3.66,0c-3.23,0.13-5.97,0.37-8.93,0.74c-0.86,0.11-1.72,0.27-2.57,0.46
				c-1.36,0.29-3.35,0.46-3.51,2.31c-0.17,2.02,1.09,3.78,2.25,5.26c1.16,1.49,3.02,3.35,2.92,5.42c-0.11,2.31-2.71,3.88-4.49,4.76
				c-3.39,1.68-7.38,2.5-11.1,2.91c-1.93,0.21-3.88,0.31-5.82,0.28c-0.99-0.02-1.97-0.07-2.95-0.18L45.46,38.22z"/>
		</g>
		<g>
			<path class="st1" d="M87.01,12.41c0.54,0.06,0.88-0.59,0.5-0.99c-1.07-1.14-2.81-1.82-4.14-2.19C79.6,8.19,75.58,8.58,71.87,9.7
				c-1.9,0.57-3.74,1.35-5.51,2.27c-1.78,0.93-4.4,3.1-6.4,3.1c-3.79,0-5.51-1.99-7.73-3.74c-2.57-2.04-3.08-2.33-4.8-3.68
				c-1.18-0.93-1.83-1.51-2.73-2.08c-0.66-0.42-1.24-1.18-1.48-0.09c-0.94,4.28,5.44,7.21,8.22,8.87c2.98,1.77,6.19,3.69,8.15,6.75
				c1.07,1.68,1.84,4.07,1,6.03c-0.95,2.19-3.66,2.54-5.69,2.89c-3.37,0.57-3.37,0.57-5.08,0.86c-2.13,0.36-4.81,0.43-5.39,1.68
				c-0.56,1.22,1.92,1.58,3.11,1.65c1.37,0.08,2.44,0.05,3.66,0c3.23-0.13,5.97-0.37,8.93-0.74c0.86-0.11,1.72-0.27,2.57-0.46
				c1.36-0.29,3.35-0.46,3.51-2.31c0.17-2.02-1.09-3.78-2.25-5.26c-1.16-1.49-3.02-3.35-2.92-5.42c0.11-2.31,2.71-3.88,4.49-4.76
				c3.39-1.68,7.38-2.5,11.1-2.91c1.93-0.21,3.88-0.31,5.82-0.28c0.99,0.02,1.97,0.07,2.95,0.18L87.01,12.41z"/>
		</g>
	</g>
	<g>
		<path class="st1" d="M6.38,34.42c0.09-0.13,0.2-0.34,0.32-0.61c0.12-0.27,0.21-0.61,0.28-1.02c0.09-0.6,0.2-1.27,0.31-2.01
			c0.12-0.75,0.24-1.53,0.36-2.35s0.25-1.65,0.37-2.51c0.13-0.86,0.24-1.7,0.36-2.53c0.11-0.83,0.22-1.63,0.33-2.4
			c0.11-0.77,0.2-1.48,0.29-2.11c0.09-0.64,0.16-1.2,0.21-1.67c0.06-0.47,0.1-0.83,0.12-1.07h1.62l8.04,15.03l7.97-15.03h1.21
			l2.1,15.18c0.06,0.48,0.12,0.89,0.19,1.23c0.07,0.34,0.14,0.63,0.2,0.88c0.07,0.24,0.13,0.44,0.2,0.6s0.13,0.29,0.19,0.39v0.05
			h-3.22v-0.05c0.04-0.09,0.08-0.25,0.12-0.46c0.04-0.21,0.06-0.47,0.06-0.77c0-0.11,0-0.22-0.01-0.34
			c-0.01-0.12-0.02-0.24-0.04-0.38l-1.62-12.24L18.8,34.42l-0.88-0.1l-7.59-14.21c-0.3,2.02-0.56,3.89-0.78,5.6
			c-0.09,0.74-0.19,1.46-0.28,2.19c-0.09,0.73-0.18,1.41-0.25,2.04c-0.07,0.63-0.13,1.18-0.17,1.67c-0.04,0.48-0.06,0.84-0.06,1.07
			c0,0.29,0.01,0.55,0.03,0.77c0.02,0.22,0.03,0.41,0.05,0.56c0.03,0.18,0.05,0.34,0.08,0.47H6.38V34.42z"/>
	</g>
	<g>
		<path class="st1" d="M114.16,18.91l-0.12,0.05c-0.66-0.61-1.46-1.1-2.39-1.47c-0.93-0.36-1.96-0.55-3.07-0.55
			c-1.07,0-2.06,0.17-2.95,0.5c-0.9,0.34-1.66,0.83-2.31,1.46c-0.64,0.64-1.14,1.42-1.5,2.35c-0.36,0.93-0.54,1.99-0.54,3.17
			c0,1.3,0.17,2.52,0.51,3.65c0.34,1.13,0.85,2.11,1.52,2.93c0.67,0.83,1.51,1.48,2.52,1.95s2.19,0.71,3.54,0.71
			c0.48,0,0.97-0.05,1.46-0.15c0.49-0.1,0.95-0.25,1.4-0.46c0.45-0.2,0.87-0.44,1.27-0.73s0.76-0.61,1.08-0.98l0.14,0.09l-1.02,2.61
			c-0.64,0.25-1.34,0.44-2.11,0.57c-0.77,0.13-1.55,0.2-2.33,0.2c-1.58,0-3.02-0.23-4.33-0.69c-1.31-0.46-2.43-1.1-3.37-1.93
			c-0.94-0.84-1.67-1.84-2.2-3.01c-0.52-1.17-0.78-2.47-0.78-3.91c0-0.81,0.11-1.6,0.31-2.39c0.21-0.78,0.51-1.53,0.92-2.24
			c0.4-0.71,0.89-1.36,1.48-1.95c0.59-0.59,1.26-1.11,2.01-1.54c0.76-0.43,1.58-0.77,2.49-1.02c0.91-0.25,1.89-0.36,2.95-0.36
			c1.65,0,3.17,0.25,4.58,0.75L114.16,18.91z"/>
	</g>
</g>
</svg>
